<svg width="199" height="39" viewBox="0 0 199 39" fill="none" xmlns="http://www.w3.org/2000/svg">
<path d="M43.9252 3.9561V26.786H48.1729V33H36.4653V3.9561H43.9252ZM56.023 7.36332C60.8262 7.36332 63.3178 9.82492 63.3178 14.523V21.2624H55.6628V27.4914C55.6628 27.8066 55.7829 27.9567 56.023 27.9567C56.2482 27.9567 56.3683 27.7766 56.3683 27.4014V21.9978H63.3178V27.0711C63.3178 31.0487 60.7511 33.3452 56.023 33.3452C51.1449 33.3452 48.3981 30.8386 48.3981 25.7503V15.3185C48.3981 10.02 50.9347 7.36332 56.023 7.36332ZM56.053 12.4967C55.7829 12.4967 55.6478 12.6768 55.6628 13.052V16.8945H56.3683V13.052C56.3532 12.6768 56.2482 12.4967 56.053 12.4967ZM71.8883 20.3017H78.988V25.7203C78.988 30.9587 76.4663 33.3452 71.5431 33.3452C66.665 33.3452 63.9182 30.8686 63.9182 25.7503V15.7538C63.9182 12.7818 64.5636 10.6354 65.8694 9.3296C67.1753 8.02375 69.0665 7.36332 71.5731 7.36332C76.4513 7.36332 78.988 9.67482 78.988 14.7331V19.5362H71.8883V13.2922C71.8883 12.9169 71.7683 12.7368 71.5431 12.7368C71.288 12.7368 71.1679 12.9169 71.1829 13.2622V27.4314C71.1829 27.7766 71.288 27.9567 71.5131 27.9567C71.7683 27.9567 71.8883 27.7766 71.8883 27.4014V20.3017ZM90.1102 7.66352V12.8719H87.9338V26.1706C87.9338 26.906 88.1739 27.2212 88.8494 27.2212H90.2003V33H86.3277C82.5753 33 80.6991 31.1688 80.7141 27.5214V12.8719H79.048V7.66352C80.2938 7.66352 81.1194 7.40835 81.5096 6.88301C81.8999 6.35767 82.2001 5.41205 82.3952 4.04616H87.9338V7.66352H90.1102ZM98.6958 27.3713V7.66352H105.915V33H99.3712L99.026 30.2982C98.0203 32.3246 96.5044 33.3302 94.478 33.3002C92.0164 33.3002 90.7856 31.8593 90.7856 28.9774V7.66352H98.0203V27.4314C98.0203 27.7166 98.1254 27.8667 98.3205 27.8667C98.5757 27.8667 98.6958 27.7016 98.6958 27.3713ZM117.743 7.36332C119.86 7.36332 120.91 8.59412 120.91 11.0557V22.5232H114.396V13.2021C114.396 12.8119 114.321 12.6167 114.171 12.6167C113.916 12.6167 113.796 12.7969 113.811 13.1721V33H106.591V7.66352H113.075L113.435 10.4403C114.021 9.43467 114.651 8.66917 115.297 8.12882C115.942 7.60348 116.768 7.34831 117.743 7.36332ZM135.905 33H129.346L128.865 30.3583C128.46 31.424 127.935 32.1745 127.304 32.6398C126.659 33.1201 125.788 33.3452 124.678 33.3452C122.141 33.3452 120.775 31.499 120.775 28.392V24.1743C120.775 22.3881 121.165 21.0372 121.946 20.1216C122.726 19.206 123.972 18.5006 125.668 18.0353L128.67 17.1947V13.2321C128.67 12.8569 128.565 12.6768 128.37 12.6768C128.085 12.6768 127.935 12.8569 127.935 13.2321V17.0446H121.27V13.2321C121.27 9.31459 123.732 7.36332 128.67 7.36332C131.132 7.36332 132.948 7.85864 134.134 8.83428C135.32 9.82492 135.905 11.536 135.905 13.9676V33ZM128.67 27.3713V22.1179L128.64 22.1479C128.25 22.283 128.055 22.7483 128.055 23.5288V27.2212C128.055 27.7166 128.16 27.9567 128.37 27.9567C128.565 27.9567 128.67 27.7616 128.67 27.3713ZM147.703 21.3824H148.108L148.078 17.2247L148.498 3.9561H159.08V33H151.92V25.8704L152.341 14.7781H151.95L150.9 33H144.836L143.77 14.6731H143.365L143.83 25.8103V33H136.67V3.9561H147.207L147.703 17.2247V21.3824ZM159.906 6.868V3.791H167.095V6.868H159.906ZM159.876 33V7.66352H167.095V33H159.876ZM179.223 7.36332C181.685 7.36332 182.916 8.81927 182.916 11.7312V33H175.696V13.2321C175.696 12.947 175.606 12.7969 175.411 12.7969C175.216 12.7969 175.02 13.007 175.02 13.2922V33H167.801V7.66352H174.345L174.675 10.3803C175.681 8.35397 177.197 7.34831 179.223 7.36332ZM187.358 7.36332C188.379 7.34831 189.22 7.61849 189.895 8.18886C190.571 8.77424 191.066 9.46469 191.396 10.2902V3.791H198.616V33H191.426V30.4483C191.096 31.2739 190.601 31.9643 189.925 32.5197C189.25 33.0901 188.394 33.3602 187.358 33.3452C184.732 33.3002 183.426 31.484 183.426 27.8667V12.8419C183.426 9.19451 184.732 7.36332 187.358 7.36332ZM191.081 12.6468C190.811 12.6468 190.676 12.7969 190.691 13.1121V27.5214C190.691 27.8066 190.826 27.9567 191.081 27.9567C191.306 27.9567 191.426 27.7916 191.426 27.4614V13.1721C191.426 12.8269 191.306 12.6468 191.081 12.6468Z" fill="#2E54FE"/>
<path d="M11.4964 21.3835H11.9016L11.8716 17.2262L12.2919 3.9588H22.8728V33H15.7138V25.871L16.134 14.7798H15.7438L14.6932 33H8.62981L7.56422 14.6748H7.15899L7.62425 25.811V33H0.46526V3.9588H11.0011L11.4964 17.2262V21.3835Z" fill="#202125"/>
<path d="M24.9455 25.3157H31.8344V33H24.9455V25.3157Z" fill="#202125"/>
</svg>
